# xmcd
#
# Track frame offsets: 
#        150
#        11885
#        31913
#        44763
#        54108
#        63010
#        79780
#        97595
#        108973
#        119493
#        134653
#        148588
#
# Disc length: 2113 seconds
#
# Revision: 2
# Processed by: cddbd v1.5.2PL0 Copyright (c) Steve Scherf et al.
# Submitted via: ExactAudioCopyFreeDBPlugin 1.0
#
DISCID=9b083f0c
DTITLE=Shel Silverstein - Boy Named Sue (And His Other Country Songs)
DYEAR=1969
DGENRE=Country
TTITLE0=Alimoney
TTITLE1=Dirty Ol' Me
TTITLE2=Cloudy Sky
TTITLE3=Kick It Again
TTITLE4=Someday's Here
TTITLE5=Time
TTITLE6=Boy Named Sue
TTITLE7=Pathetic Way Of Getting Over Me
TTITLE8=Somebody Stole My Rig
TTITLE9=Comin' After Jinny
TTITLE10=Daylight Dreamer
TTITLE11=Bigtime
EXTD=
EXTT0=
EXTT1=
EXTT2=
EXTT3=
EXTT4=
EXTT5=
EXTT6=
EXTT7=
EXTT8=
EXTT9=
EXTT10=
EXTT11=
PLAYORDER=
